<svg xmlns="http://www.w3.org/2000/svg" width="173.439" height="45.127" role="img" data-cy="imageLogo">
  <defs>
    <style>.logo_svg__b{fill:#f7f5f5}</style>
  </defs>
  <path d="m1216.847 505.654-9.07-5.236v10.472l9.07-5.236-9.07-5.236v10.472Z" transform="translate(-1043.409 -483.991)" style="fill:#ff7800"></path>
  <path class="logo_svg__b" d="M157.303 16.226a4.42 4.42 0 1 0-4.395-4.4 4.4 4.4 0 0 0 4.395 4.4M157.363 27.102a4.42 4.42 0 1 0 4.494 4.444 4.468 4.468 0 0 0-4.494-4.444M81.418 6.402h-.625a12.525 12.525 0 0 0-12.522 12.522v17.095h7.69V18.924a5.2 5.2 0 0 1 1.432-3.865 5.518 5.518 0 0 1 7.425 0 5.2 5.2 0 0 1 1.432 3.866V36.02h7.69V18.924A12.526 12.526 0 0 0 81.418 6.402M107.193 0h-7.69v36.019h7.69V14.538h6.234V7.317h-6.234ZM132.97 29.354a7.638 7.638 0 0 1-4.61 0 8.026 8.026 0 0 1 0-15.377 7.64 7.64 0 0 1 4.61 0 8.026 8.026 0 0 1 0 15.377m11.8-13.535a15.344 15.344 0 1 0 1.158 5.847 15.2 15.2 0 0 0-1.158-5.847M51.442 29.354a7.636 7.636 0 0 1-4.611 0 8.026 8.026 0 0 1 0-15.377 7.638 7.638 0 0 1 4.609 0 8.026 8.026 0 0 1 0 15.377m8.489-18.482a15.19 15.19 0 1 0 3.314 4.947 15.205 15.205 0 0 0-3.314-4.947M17.611 29.341a7.6 7.6 0 0 1-4.689 0 8.026 8.026 0 0 1 .079-15.376 7.69 7.69 0 0 1 4.531 0 8.026 8.026 0 0 1 .079 15.376m8.449-18.468A15.256 15.256 0 0 0 .013 21.054H0v24.073h7.69V34.922a15.263 15.263 0 0 0 18.37-24.049"></path>
</svg>
